# xmcd CD database file
#
# Track frame offsets:
#	150
#	23157
#	38180
#	57652
#
# Disc length: 1005 seconds
#
# Revision: 0
# Processed by: cddbd v1.5.1PL0 Copyright (c) Steve Scherf et al.
# Submitted via: CDex 1.51
#
DISCID=3003eb04
DTITLE=木屋響子 - 前略 Dear...
DYEAR=1900
DGENRE=JPop
TTITLE0=MU
TTITLE1=GEKKO
TTITLE2=前略 Dear...
TTITLE3=WE ARE ON JIPANG
EXTD=
EXTT0=
EXTT1=
EXTT2=
EXTT3=
PLAYORDER=
